<mxfile host="app.diagrams.net" agent="Mozilla/5.0 (Windows NT 10.0; Win64; x64) AppleWebKit/537.36 (KHTML, like Gecko) Chrome/132.0.0.0 Safari/537.36 Edg/132.0.0.0" version="26.0.10">
  <diagram name="Page-1" id="ainewDnuy-ewS5lKNhwG">
    <mxGraphModel dx="1426" dy="1881" grid="1" gridSize="10" guides="1" tooltips="1" connect="1" arrows="1" fold="1" page="1" pageScale="1" pageWidth="850" pageHeight="1100" math="0" shadow="0">
      <root>
        <mxCell id="0" />
        <mxCell id="1" parent="0" />
        <mxCell id="xhRaF_tMoTgy2h4PzyXJ-1" value="" style="edgeStyle=orthogonalEdgeStyle;rounded=0;orthogonalLoop=1;jettySize=auto;html=1;" parent="1" source="xhRaF_tMoTgy2h4PzyXJ-4" target="xhRaF_tMoTgy2h4PzyXJ-13" edge="1">
          <mxGeometry relative="1" as="geometry" />
        </mxCell>
        <mxCell id="xhRaF_tMoTgy2h4PzyXJ-2" value="Only Authenticated&lt;div&gt;&amp;nbsp;user&lt;/div&gt;" style="edgeLabel;html=1;align=center;verticalAlign=middle;resizable=0;points=[];" parent="xhRaF_tMoTgy2h4PzyXJ-1" vertex="1" connectable="0">
          <mxGeometry x="-0.1092" y="2" relative="1" as="geometry">
            <mxPoint x="-27" as="offset" />
          </mxGeometry>
        </mxCell>
        <mxCell id="xhRaF_tMoTgy2h4PzyXJ-3" value="1" style="edgeLabel;html=1;align=center;verticalAlign=middle;resizable=0;points=[];" parent="xhRaF_tMoTgy2h4PzyXJ-1" vertex="1" connectable="0">
          <mxGeometry x="0.2639" y="4" relative="1" as="geometry">
            <mxPoint as="offset" />
          </mxGeometry>
        </mxCell>
        <mxCell id="xhRaF_tMoTgy2h4PzyXJ-4" value="Customer, Registered/License Electrical Worker Portal" style="rounded=0;whiteSpace=wrap;html=1;" parent="1" vertex="1">
          <mxGeometry x="30" y="101" width="120" height="60" as="geometry" />
        </mxCell>
        <mxCell id="xhRaF_tMoTgy2h4PzyXJ-13" value="Salesforce Experience Cloud and Industry Cloud" style="rounded=0;whiteSpace=wrap;html=1;" parent="1" vertex="1">
          <mxGeometry x="390" y="103" width="120" height="60" as="geometry" />
        </mxCell>
        <mxCell id="xhRaF_tMoTgy2h4PzyXJ-50" value="Web Method" style="rounded=0;whiteSpace=wrap;html=1;" parent="1" vertex="1">
          <mxGeometry x="1074" y="133" width="120" height="60" as="geometry" />
        </mxCell>
        <mxCell id="xhRaF_tMoTgy2h4PzyXJ-51" value="CitiPower" style="rounded=0;whiteSpace=wrap;html=1;fillColor=light-dark(#80FF00,var(--ge-dark-color, #121212));" parent="1" vertex="1">
          <mxGeometry x="660" y="-270" width="120" height="60" as="geometry" />
        </mxCell>
        <mxCell id="xhRaF_tMoTgy2h4PzyXJ-52" value="Abby document verification&lt;div&gt;SAP&amp;nbsp;&lt;/div&gt;&lt;div&gt;Boint for Payment&lt;/div&gt;&lt;div&gt;Conga&lt;/div&gt;&lt;div&gt;Docusign&lt;/div&gt;&lt;div&gt;&lt;br&gt;&lt;/div&gt;&lt;div&gt;&lt;br&gt;&lt;/div&gt;" style="rounded=0;whiteSpace=wrap;html=1;" parent="1" vertex="1">
          <mxGeometry x="1490" y="-380" width="600" height="250" as="geometry" />
        </mxCell>
        <mxCell id="xhRaF_tMoTgy2h4PzyXJ-54" value="Solar Pre Approval" style="rounded=0;whiteSpace=wrap;html=1;" parent="1" vertex="1">
          <mxGeometry x="680" y="300" width="120" height="60" as="geometry" />
        </mxCell>
        <mxCell id="xhRaF_tMoTgy2h4PzyXJ-55" value="Abolishment" style="rounded=0;whiteSpace=wrap;html=1;" parent="1" vertex="1">
          <mxGeometry x="680" y="190" width="120" height="60" as="geometry" />
        </mxCell>
        <mxCell id="xhRaF_tMoTgy2h4PzyXJ-56" value="Alteration" style="rounded=0;whiteSpace=wrap;html=1;" parent="1" vertex="1">
          <mxGeometry x="678" y="70" width="120" height="60" as="geometry" />
        </mxCell>
        <mxCell id="xhRaF_tMoTgy2h4PzyXJ-57" value="New Connection" style="rounded=0;whiteSpace=wrap;html=1;" parent="1" vertex="1">
          <mxGeometry x="678" y="-40" width="120" height="60" as="geometry" />
        </mxCell>
        <mxCell id="xhRaF_tMoTgy2h4PzyXJ-69" value="" style="edgeStyle=orthogonalEdgeStyle;rounded=0;orthogonalLoop=1;jettySize=auto;html=1;" parent="1" source="xhRaF_tMoTgy2h4PzyXJ-58" target="xhRaF_tMoTgy2h4PzyXJ-68" edge="1">
          <mxGeometry relative="1" as="geometry" />
        </mxCell>
        <mxCell id="xhRaF_tMoTgy2h4PzyXJ-58" value="" style="rounded=0;whiteSpace=wrap;html=1;gradientColor=none;fillColor=none;" parent="1" vertex="1">
          <mxGeometry x="650" y="-137" width="230" height="590" as="geometry" />
        </mxCell>
        <mxCell id="xhRaF_tMoTgy2h4PzyXJ-75" style="edgeStyle=orthogonalEdgeStyle;rounded=0;orthogonalLoop=1;jettySize=auto;html=1;exitX=0;exitY=0.5;exitDx=0;exitDy=0;entryX=1;entryY=0.5;entryDx=0;entryDy=0;" parent="1" source="xhRaF_tMoTgy2h4PzyXJ-60" target="xhRaF_tMoTgy2h4PzyXJ-74" edge="1">
          <mxGeometry relative="1" as="geometry" />
        </mxCell>
        <mxCell id="xhRaF_tMoTgy2h4PzyXJ-60" value="Single OmniScript" style="rounded=1;whiteSpace=wrap;html=1;fillColor=#f8cecc;strokeColor=#b85450;" parent="1" vertex="1">
          <mxGeometry x="670" y="-180" width="120" height="20" as="geometry" />
        </mxCell>
        <mxCell id="xhRaF_tMoTgy2h4PzyXJ-61" style="edgeStyle=orthogonalEdgeStyle;rounded=0;orthogonalLoop=1;jettySize=auto;html=1;exitX=1;exitY=0.5;exitDx=0;exitDy=0;entryX=-0.008;entryY=0.458;entryDx=0;entryDy=0;entryPerimeter=0;" parent="1" source="xhRaF_tMoTgy2h4PzyXJ-13" target="xhRaF_tMoTgy2h4PzyXJ-58" edge="1">
          <mxGeometry relative="1" as="geometry" />
        </mxCell>
        <mxCell id="xhRaF_tMoTgy2h4PzyXJ-62" value="------" style="rounded=0;whiteSpace=wrap;html=1;" parent="1" vertex="1">
          <mxGeometry x="678" y="-110" width="120" height="60" as="geometry" />
        </mxCell>
        <mxCell id="xhRaF_tMoTgy2h4PzyXJ-63" value="------" style="rounded=0;whiteSpace=wrap;html=1;" parent="1" vertex="1">
          <mxGeometry x="678" y="380" width="120" height="60" as="geometry" />
        </mxCell>
        <mxCell id="xhRaF_tMoTgy2h4PzyXJ-81" value="" style="edgeStyle=orthogonalEdgeStyle;rounded=0;orthogonalLoop=1;jettySize=auto;html=1;" parent="1" source="xhRaF_tMoTgy2h4PzyXJ-65" target="xhRaF_tMoTgy2h4PzyXJ-76" edge="1">
          <mxGeometry relative="1" as="geometry" />
        </mxCell>
        <mxCell id="xhRaF_tMoTgy2h4PzyXJ-65" value="6-8% Average Application Failure monthly" style="rounded=1;whiteSpace=wrap;html=1;fillColor=#f8cecc;strokeColor=#b85450;" parent="1" vertex="1">
          <mxGeometry x="894" y="-190" width="120" height="40" as="geometry" />
        </mxCell>
        <mxCell id="xhRaF_tMoTgy2h4PzyXJ-80" style="edgeStyle=orthogonalEdgeStyle;rounded=0;orthogonalLoop=1;jettySize=auto;html=1;exitX=1;exitY=0.5;exitDx=0;exitDy=0;" parent="1" source="xhRaF_tMoTgy2h4PzyXJ-66" target="xhRaF_tMoTgy2h4PzyXJ-77" edge="1">
          <mxGeometry relative="1" as="geometry" />
        </mxCell>
        <mxCell id="xhRaF_tMoTgy2h4PzyXJ-66" value="Application Submission time 20-30 second" style="rounded=1;whiteSpace=wrap;html=1;fillColor=#f8cecc;strokeColor=#b85450;" parent="1" vertex="1">
          <mxGeometry x="894" y="-137" width="120" height="47" as="geometry" />
        </mxCell>
        <mxCell id="xhRaF_tMoTgy2h4PzyXJ-79" value="" style="edgeStyle=orthogonalEdgeStyle;rounded=0;orthogonalLoop=1;jettySize=auto;html=1;" parent="1" source="xhRaF_tMoTgy2h4PzyXJ-67" target="xhRaF_tMoTgy2h4PzyXJ-78" edge="1">
          <mxGeometry relative="1" as="geometry" />
        </mxCell>
        <mxCell id="xhRaF_tMoTgy2h4PzyXJ-67" value="&amp;nbsp;transaction in final submit call" style="rounded=1;whiteSpace=wrap;html=1;fillColor=#f8cecc;strokeColor=#b85450;" parent="1" vertex="1">
          <mxGeometry x="889" y="-60" width="120" height="40" as="geometry" />
        </mxCell>
        <mxCell id="xhRaF_tMoTgy2h4PzyXJ-94" style="edgeStyle=orthogonalEdgeStyle;rounded=0;orthogonalLoop=1;jettySize=auto;html=1;exitX=1;exitY=0.5;exitDx=0;exitDy=0;entryX=0;entryY=0.5;entryDx=0;entryDy=0;" parent="1" source="xhRaF_tMoTgy2h4PzyXJ-68" target="xhRaF_tMoTgy2h4PzyXJ-50" edge="1">
          <mxGeometry relative="1" as="geometry" />
        </mxCell>
        <mxCell id="xhRaF_tMoTgy2h4PzyXJ-68" value="Submit" style="rounded=0;whiteSpace=wrap;html=1;" parent="1" vertex="1">
          <mxGeometry x="914" y="128" width="120" height="60" as="geometry" />
        </mxCell>
        <mxCell id="xhRaF_tMoTgy2h4PzyXJ-70" value="Abby Attachment verification" style="rounded=0;whiteSpace=wrap;html=1;" parent="1" vertex="1">
          <mxGeometry x="1260" y="-110" width="120" height="60" as="geometry" />
        </mxCell>
        <mxCell id="xhRaF_tMoTgy2h4PzyXJ-71" value="Conga Email notification" style="rounded=0;whiteSpace=wrap;html=1;" parent="1" vertex="1">
          <mxGeometry x="1260" y="-40" width="120" height="60" as="geometry" />
        </mxCell>
        <mxCell id="xhRaF_tMoTgy2h4PzyXJ-92" value="" style="edgeStyle=orthogonalEdgeStyle;rounded=0;orthogonalLoop=1;jettySize=auto;html=1;entryX=0;entryY=0.5;entryDx=0;entryDy=0;" parent="1" source="xhRaF_tMoTgy2h4PzyXJ-72" target="xhRaF_tMoTgy2h4PzyXJ-88" edge="1">
          <mxGeometry relative="1" as="geometry" />
        </mxCell>
        <mxCell id="xhRaF_tMoTgy2h4PzyXJ-72" value="SAP for Fullfilment" style="rounded=0;whiteSpace=wrap;html=1;" parent="1" vertex="1">
          <mxGeometry x="1700" y="189" width="120" height="60" as="geometry" />
        </mxCell>
        <mxCell id="xhRaF_tMoTgy2h4PzyXJ-73" value="SFS for field work" style="rounded=0;whiteSpace=wrap;html=1;" parent="1" vertex="1">
          <mxGeometry x="1260" y="140" width="120" height="60" as="geometry" />
        </mxCell>
        <mxCell id="xhRaF_tMoTgy2h4PzyXJ-74" value="Distributed load in multiple OS and Adding extra pages reducing AST (Average consumer screen time)" style="rounded=1;whiteSpace=wrap;html=1;fillColor=#d5e8d4;strokeColor=#82b366;" parent="1" vertex="1">
          <mxGeometry x="470" y="-180" width="120" height="90" as="geometry" />
        </mxCell>
        <mxCell id="xhRaF_tMoTgy2h4PzyXJ-76" value="0.007% failure due to some pending implementation" style="rounded=1;whiteSpace=wrap;html=1;fillColor=#d5e8d4;strokeColor=#82b366;" parent="1" vertex="1">
          <mxGeometry x="1080" y="-190" width="120" height="40" as="geometry" />
        </mxCell>
        <mxCell id="xhRaF_tMoTgy2h4PzyXJ-77" value="4-6 seconds" style="rounded=1;whiteSpace=wrap;html=1;fillColor=#d5e8d4;strokeColor=#82b366;" parent="1" vertex="1">
          <mxGeometry x="1080" y="-134" width="120" height="40" as="geometry" />
        </mxCell>
        <mxCell id="xhRaF_tMoTgy2h4PzyXJ-78" value="Distribute load on every page" style="rounded=1;whiteSpace=wrap;html=1;fillColor=#d5e8d4;strokeColor=#82b366;" parent="1" vertex="1">
          <mxGeometry x="1070" y="-60" width="120" height="40" as="geometry" />
        </mxCell>
        <mxCell id="xhRaF_tMoTgy2h4PzyXJ-82" value="Device/Inverter validation SAP API" style="rounded=0;whiteSpace=wrap;html=1;" parent="1" vertex="1">
          <mxGeometry x="1260" y="220" width="120" height="60" as="geometry" />
        </mxCell>
        <mxCell id="xhRaF_tMoTgy2h4PzyXJ-83" value="Market NMI validation" style="rounded=0;whiteSpace=wrap;html=1;" parent="1" vertex="1">
          <mxGeometry x="1260" y="300" width="120" height="60" as="geometry" />
        </mxCell>
        <mxCell id="xhRaF_tMoTgy2h4PzyXJ-84" value="Invoice preparation" style="rounded=0;whiteSpace=wrap;html=1;" parent="1" vertex="1">
          <mxGeometry x="1260" y="380" width="120" height="60" as="geometry" />
        </mxCell>
        <mxCell id="xhRaF_tMoTgy2h4PzyXJ-85" value="Truck appointment" style="rounded=0;whiteSpace=wrap;html=1;" parent="1" vertex="1">
          <mxGeometry x="1260" y="470" width="120" height="60" as="geometry" />
        </mxCell>
        <mxCell id="xhRaF_tMoTgy2h4PzyXJ-86" value="After hours appointment" style="rounded=0;whiteSpace=wrap;html=1;" parent="1" vertex="1">
          <mxGeometry x="1260" y="550" width="120" height="60" as="geometry" />
        </mxCell>
        <mxCell id="xhRaF_tMoTgy2h4PzyXJ-87" value="Complex metering scenario" style="rounded=0;whiteSpace=wrap;html=1;" parent="1" vertex="1">
          <mxGeometry x="1260" y="60" width="120" height="60" as="geometry" />
        </mxCell>
        <mxCell id="xhRaF_tMoTgy2h4PzyXJ-93" style="edgeStyle=orthogonalEdgeStyle;rounded=0;orthogonalLoop=1;jettySize=auto;html=1;exitX=0.5;exitY=1;exitDx=0;exitDy=0;" parent="1" source="xhRaF_tMoTgy2h4PzyXJ-88" target="xhRaF_tMoTgy2h4PzyXJ-13" edge="1">
          <mxGeometry relative="1" as="geometry">
            <Array as="points">
              <mxPoint x="1980" y="670" />
              <mxPoint x="450" y="670" />
            </Array>
          </mxGeometry>
        </mxCell>
        <mxCell id="xhRaF_tMoTgy2h4PzyXJ-88" value="Closeout /Event" style="rounded=0;whiteSpace=wrap;html=1;" parent="1" vertex="1">
          <mxGeometry x="1920" y="188" width="120" height="60" as="geometry" />
        </mxCell>
        <mxCell id="xhRaF_tMoTgy2h4PzyXJ-91" style="edgeStyle=orthogonalEdgeStyle;rounded=0;orthogonalLoop=1;jettySize=auto;html=1;exitX=1;exitY=0.5;exitDx=0;exitDy=0;entryX=0;entryY=0.5;entryDx=0;entryDy=0;" parent="1" source="xhRaF_tMoTgy2h4PzyXJ-89" target="xhRaF_tMoTgy2h4PzyXJ-72" edge="1">
          <mxGeometry relative="1" as="geometry">
            <mxPoint x="1689.9999999999995" y="100" as="targetPoint" />
          </mxGeometry>
        </mxCell>
        <mxCell id="xhRaF_tMoTgy2h4PzyXJ-89" value="" style="rounded=0;whiteSpace=wrap;html=1;fillColor=none;" parent="1" vertex="1">
          <mxGeometry x="1240" y="-210" width="200" height="860" as="geometry" />
        </mxCell>
        <mxCell id="xhRaF_tMoTgy2h4PzyXJ-95" style="edgeStyle=orthogonalEdgeStyle;rounded=0;orthogonalLoop=1;jettySize=auto;html=1;exitX=1;exitY=0.5;exitDx=0;exitDy=0;entryX=0.004;entryY=0.435;entryDx=0;entryDy=0;entryPerimeter=0;" parent="1" source="xhRaF_tMoTgy2h4PzyXJ-50" target="xhRaF_tMoTgy2h4PzyXJ-89" edge="1">
          <mxGeometry relative="1" as="geometry" />
        </mxCell>
        <mxCell id="xhRaF_tMoTgy2h4PzyXJ-101" style="edgeStyle=orthogonalEdgeStyle;rounded=0;orthogonalLoop=1;jettySize=auto;html=1;exitX=1;exitY=0.5;exitDx=0;exitDy=0;entryX=0;entryY=0.5;entryDx=0;entryDy=0;" parent="1" source="xhRaF_tMoTgy2h4PzyXJ-96" target="xhRaF_tMoTgy2h4PzyXJ-100" edge="1">
          <mxGeometry relative="1" as="geometry" />
        </mxCell>
        <mxCell id="xhRaF_tMoTgy2h4PzyXJ-96" value="Most of the API&#39;s were called during submission resulting in failure" style="rounded=0;whiteSpace=wrap;html=1;fillColor=#f8cecc;strokeColor=#b85450;" parent="1" vertex="1">
          <mxGeometry x="1460" y="-80" width="120" height="60" as="geometry" />
        </mxCell>
        <mxCell id="xhRaF_tMoTgy2h4PzyXJ-99" style="edgeStyle=orthogonalEdgeStyle;rounded=0;orthogonalLoop=1;jettySize=auto;html=1;exitX=1;exitY=0.5;exitDx=0;exitDy=0;entryX=0;entryY=0.5;entryDx=0;entryDy=0;" parent="1" source="xhRaF_tMoTgy2h4PzyXJ-97" target="xhRaF_tMoTgy2h4PzyXJ-98" edge="1">
          <mxGeometry relative="1" as="geometry" />
        </mxCell>
        <mxCell id="xhRaF_tMoTgy2h4PzyXJ-97" value="Low Impact Privacy breach" style="rounded=1;whiteSpace=wrap;html=1;fillColor=#f8cecc;strokeColor=#b85450;" parent="1" vertex="1">
          <mxGeometry x="910" y="370" width="120" height="40" as="geometry" />
        </mxCell>
        <mxCell id="xhRaF_tMoTgy2h4PzyXJ-98" value="Fixed all security issues" style="rounded=1;whiteSpace=wrap;html=1;fillColor=#d5e8d4;strokeColor=#82b366;" parent="1" vertex="1">
          <mxGeometry x="1080" y="370" width="120" height="40" as="geometry" />
        </mxCell>
        <mxCell id="xhRaF_tMoTgy2h4PzyXJ-100" value="Changed all downstream calls into steps (Orchestration)" style="rounded=0;whiteSpace=wrap;html=1;fillColor=#d5e8d4;strokeColor=#82b366;" parent="1" vertex="1">
          <mxGeometry x="1660" y="-79" width="120" height="60" as="geometry" />
        </mxCell>
        <mxCell id="xhRaF_tMoTgy2h4PzyXJ-104" style="edgeStyle=orthogonalEdgeStyle;rounded=0;orthogonalLoop=1;jettySize=auto;html=1;exitX=1;exitY=0.5;exitDx=0;exitDy=0;" parent="1" source="xhRaF_tMoTgy2h4PzyXJ-102" target="xhRaF_tMoTgy2h4PzyXJ-103" edge="1">
          <mxGeometry relative="1" as="geometry" />
        </mxCell>
        <mxCell id="xhRaF_tMoTgy2h4PzyXJ-102" value="Complex duplicate contact check taking 7-10 seconds and duplication check not being performed at all placces leading to create multiple duplicates" style="rounded=0;whiteSpace=wrap;html=1;fillColor=#f8cecc;strokeColor=#b85450;" parent="1" vertex="1">
          <mxGeometry x="1460" width="150" height="100" as="geometry" />
        </mxCell>
        <mxCell id="xhRaF_tMoTgy2h4PzyXJ-103" value="Changed&amp;nbsp; to 300ms" style="rounded=0;whiteSpace=wrap;html=1;fillColor=#d5e8d4;strokeColor=#82b366;" parent="1" vertex="1">
          <mxGeometry x="1670" y="20" width="120" height="60" as="geometry" />
        </mxCell>
      </root>
    </mxGraphModel>
  </diagram>
</mxfile>
